<mxfile host="app.diagrams.net" agent="Mozilla/5.0 (Windows NT 10.0; Win64; x64) AppleWebKit/537.36 (KHTML, like Gecko) Chrome/135.0.0.0 Safari/537.36" version="26.2.13">
  <diagram name="Page-1" id="kbyUYZj_W14xtbQeNkoP">
    <mxGraphModel dx="1013" dy="613" grid="1" gridSize="10" guides="1" tooltips="1" connect="1" arrows="1" fold="1" page="1" pageScale="1" pageWidth="850" pageHeight="1100" math="0" shadow="0">
      <root>
        <mxCell id="0" />
        <mxCell id="1" parent="0" />
        <mxCell id="xV9VtFNJZrZZkLkUG6F--14" value="Part1 判别器模型构建" style="swimlane;fontStyle=0;childLayout=stackLayout;horizontal=1;startSize=30;horizontalStack=0;resizeParent=1;resizeParentMax=0;resizeLast=0;collapsible=1;marginBottom=0;whiteSpace=wrap;html=1;" parent="1" vertex="1">
          <mxGeometry x="200" y="120" width="280" height="120" as="geometry">
            <mxRectangle x="315" y="130" width="160" height="30" as="alternateBounds" />
          </mxGeometry>
        </mxCell>
        <mxCell id="xV9VtFNJZrZZkLkUG6F--15" value="本地化部署Deepseek大模型，解除道德限制" style="text;strokeColor=none;fillColor=none;align=left;verticalAlign=middle;spacingLeft=4;spacingRight=4;overflow=hidden;points=[[0,0.5],[1,0.5]];portConstraint=eastwest;rotatable=0;whiteSpace=wrap;html=1;" parent="xV9VtFNJZrZZkLkUG6F--14" vertex="1">
          <mxGeometry y="30" width="280" height="30" as="geometry" />
        </mxCell>
        <mxCell id="xV9VtFNJZrZZkLkUG6F--16" value="构造提示词，生成数据集，打上标签" style="text;strokeColor=none;fillColor=none;align=left;verticalAlign=middle;spacingLeft=4;spacingRight=4;overflow=hidden;points=[[0,0.5],[1,0.5]];portConstraint=eastwest;rotatable=0;whiteSpace=wrap;html=1;" parent="xV9VtFNJZrZZkLkUG6F--14" vertex="1">
          <mxGeometry y="60" width="280" height="30" as="geometry" />
        </mxCell>
        <mxCell id="xV9VtFNJZrZZkLkUG6F--17" value="用生成的数据集指导分类模型的训练与测试" style="text;strokeColor=none;fillColor=none;align=left;verticalAlign=middle;spacingLeft=4;spacingRight=4;overflow=hidden;points=[[0,0.5],[1,0.5]];portConstraint=eastwest;rotatable=0;whiteSpace=wrap;html=1;" parent="xV9VtFNJZrZZkLkUG6F--14" vertex="1">
          <mxGeometry y="90" width="280" height="30" as="geometry" />
        </mxCell>
        <mxCell id="AW_P3dIRDqrpF_igCJln-1" style="edgeStyle=orthogonalEdgeStyle;rounded=0;orthogonalLoop=1;jettySize=auto;html=1;exitX=1;exitY=0.5;exitDx=0;exitDy=0;" edge="1" parent="xV9VtFNJZrZZkLkUG6F--14" source="xV9VtFNJZrZZkLkUG6F--16" target="xV9VtFNJZrZZkLkUG6F--16">
          <mxGeometry relative="1" as="geometry" />
        </mxCell>
        <mxCell id="xV9VtFNJZrZZkLkUG6F--18" value="Part2 舆情风险标签体系构建" style="swimlane;fontStyle=0;childLayout=stackLayout;horizontal=1;startSize=30;horizontalStack=0;resizeParent=1;resizeParentMax=0;resizeLast=0;collapsible=1;marginBottom=0;whiteSpace=wrap;html=1;" parent="1" vertex="1">
          <mxGeometry x="520" y="120" width="240" height="120" as="geometry" />
        </mxCell>
        <mxCell id="xV9VtFNJZrZZkLkUG6F--19" value="基于宗教话题的敏感度与社会影响程度，构建了“中性—敏感—极端”三层级分类模型" style="text;strokeColor=none;fillColor=none;align=left;verticalAlign=middle;spacingLeft=4;spacingRight=4;overflow=hidden;points=[[0,0.5],[1,0.5]];portConstraint=eastwest;rotatable=0;whiteSpace=wrap;html=1;" parent="xV9VtFNJZrZZkLkUG6F--18" vertex="1">
          <mxGeometry y="30" width="240" height="90" as="geometry" />
        </mxCell>
        <mxCell id="xV9VtFNJZrZZkLkUG6F--26" value="Part3 系统开发与部署" style="swimlane;fontStyle=0;childLayout=stackLayout;horizontal=1;startSize=30;horizontalStack=0;resizeParent=1;resizeParentMax=0;resizeLast=0;collapsible=1;marginBottom=0;whiteSpace=wrap;html=1;" parent="1" vertex="1">
          <mxGeometry x="800" y="120" width="280" height="120" as="geometry" />
        </mxCell>
        <mxCell id="xV9VtFNJZrZZkLkUG6F--27" value="使用Bootstrap框架构建前端相关页面" style="text;strokeColor=none;fillColor=none;align=left;verticalAlign=middle;spacingLeft=4;spacingRight=4;overflow=hidden;points=[[0,0.5],[1,0.5]];portConstraint=eastwest;rotatable=0;whiteSpace=wrap;html=1;" parent="xV9VtFNJZrZZkLkUG6F--26" vertex="1">
          <mxGeometry y="30" width="280" height="30" as="geometry" />
        </mxCell>
        <mxCell id="AW_P3dIRDqrpF_igCJln-6" value="" style="endArrow=classic;html=1;rounded=0;" edge="1" parent="xV9VtFNJZrZZkLkUG6F--26" target="xV9VtFNJZrZZkLkUG6F--30">
          <mxGeometry width="50" height="50" relative="1" as="geometry">
            <mxPoint x="140" y="120" as="sourcePoint" />
            <mxPoint x="190" y="70" as="targetPoint" />
          </mxGeometry>
        </mxCell>
        <mxCell id="xV9VtFNJZrZZkLkUG6F--28" value="部署MySQL，针对相关字段进行设计" style="text;strokeColor=none;fillColor=none;align=left;verticalAlign=middle;spacingLeft=4;spacingRight=4;overflow=hidden;points=[[0,0.5],[1,0.5]];portConstraint=eastwest;rotatable=0;whiteSpace=wrap;html=1;" parent="xV9VtFNJZrZZkLkUG6F--26" vertex="1">
          <mxGeometry y="60" width="280" height="30" as="geometry" />
        </mxCell>
        <mxCell id="xV9VtFNJZrZZkLkUG6F--29" value="使用Python的Flask框架做前后端通信" style="text;strokeColor=none;fillColor=none;align=left;verticalAlign=middle;spacingLeft=4;spacingRight=4;overflow=hidden;points=[[0,0.5],[1,0.5]];portConstraint=eastwest;rotatable=0;whiteSpace=wrap;html=1;" parent="xV9VtFNJZrZZkLkUG6F--26" vertex="1">
          <mxGeometry y="90" width="280" height="30" as="geometry" />
        </mxCell>
        <mxCell id="xV9VtFNJZrZZkLkUG6F--30" value="Part4 Docker容器化" style="swimlane;fontStyle=0;childLayout=stackLayout;horizontal=1;startSize=30;horizontalStack=0;resizeParent=1;resizeParentMax=0;resizeLast=0;collapsible=1;marginBottom=0;whiteSpace=wrap;html=1;" parent="1" vertex="1">
          <mxGeometry x="800" y="280" width="280" height="120" as="geometry" />
        </mxCell>
        <mxCell id="xV9VtFNJZrZZkLkUG6F--31" value="拉取Alpine基础镜像，配置python环境" style="text;strokeColor=none;fillColor=none;align=left;verticalAlign=middle;spacingLeft=4;spacingRight=4;overflow=hidden;points=[[0,0.5],[1,0.5]];portConstraint=eastwest;rotatable=0;whiteSpace=wrap;html=1;" parent="xV9VtFNJZrZZkLkUG6F--30" vertex="1">
          <mxGeometry y="30" width="280" height="30" as="geometry" />
        </mxCell>
        <mxCell id="xV9VtFNJZrZZkLkUG6F--32" value="配置init脚本，实现容器初始化" style="text;strokeColor=none;fillColor=none;align=left;verticalAlign=middle;spacingLeft=4;spacingRight=4;overflow=hidden;points=[[0,0.5],[1,0.5]];portConstraint=eastwest;rotatable=0;whiteSpace=wrap;html=1;" parent="xV9VtFNJZrZZkLkUG6F--30" vertex="1">
          <mxGeometry y="60" width="280" height="30" as="geometry" />
        </mxCell>
        <mxCell id="xV9VtFNJZrZZkLkUG6F--33" value="调用docker-compose将项目打包成镜像并存入仓库" style="text;strokeColor=none;fillColor=none;align=left;verticalAlign=middle;spacingLeft=4;spacingRight=4;overflow=hidden;points=[[0,0.5],[1,0.5]];portConstraint=eastwest;rotatable=0;whiteSpace=wrap;html=1;" parent="xV9VtFNJZrZZkLkUG6F--30" vertex="1">
          <mxGeometry y="90" width="280" height="30" as="geometry" />
        </mxCell>
        <mxCell id="xV9VtFNJZrZZkLkUG6F--38" value="Part5 样本测试与效果评估" style="swimlane;fontStyle=0;childLayout=stackLayout;horizontal=1;startSize=30;horizontalStack=0;resizeParent=1;resizeParentMax=0;resizeLast=0;collapsible=1;marginBottom=0;whiteSpace=wrap;html=1;" parent="1" vertex="1">
          <mxGeometry x="520" y="280" width="240" height="120" as="geometry" />
        </mxCell>
        <mxCell id="xV9VtFNJZrZZkLkUG6F--39" value="在小型平台上根据对应接口实现部署" style="text;strokeColor=none;fillColor=none;align=left;verticalAlign=middle;spacingLeft=4;spacingRight=4;overflow=hidden;points=[[0,0.5],[1,0.5]];portConstraint=eastwest;rotatable=0;whiteSpace=wrap;html=1;" parent="xV9VtFNJZrZZkLkUG6F--38" vertex="1">
          <mxGeometry y="30" width="240" height="30" as="geometry" />
        </mxCell>
        <mxCell id="xV9VtFNJZrZZkLkUG6F--40" value="收集模型反馈数据" style="text;strokeColor=none;fillColor=none;align=left;verticalAlign=middle;spacingLeft=4;spacingRight=4;overflow=hidden;points=[[0,0.5],[1,0.5]];portConstraint=eastwest;rotatable=0;whiteSpace=wrap;html=1;" parent="xV9VtFNJZrZZkLkUG6F--38" vertex="1">
          <mxGeometry y="60" width="240" height="30" as="geometry" />
        </mxCell>
        <mxCell id="xV9VtFNJZrZZkLkUG6F--43" value="针对反馈数据加以修正完善" style="text;strokeColor=none;fillColor=none;align=left;verticalAlign=middle;spacingLeft=4;spacingRight=4;overflow=hidden;points=[[0,0.5],[1,0.5]];portConstraint=eastwest;rotatable=0;whiteSpace=wrap;html=1;" parent="xV9VtFNJZrZZkLkUG6F--38" vertex="1">
          <mxGeometry y="90" width="240" height="30" as="geometry" />
        </mxCell>
        <mxCell id="AW_P3dIRDqrpF_igCJln-4" style="edgeStyle=orthogonalEdgeStyle;rounded=0;orthogonalLoop=1;jettySize=auto;html=1;exitX=1;exitY=0.5;exitDx=0;exitDy=0;entryX=0;entryY=0.5;entryDx=0;entryDy=0;" edge="1" parent="1" source="xV9VtFNJZrZZkLkUG6F--16" target="xV9VtFNJZrZZkLkUG6F--19">
          <mxGeometry relative="1" as="geometry" />
        </mxCell>
        <mxCell id="AW_P3dIRDqrpF_igCJln-5" style="edgeStyle=orthogonalEdgeStyle;rounded=0;orthogonalLoop=1;jettySize=auto;html=1;exitX=1;exitY=0.5;exitDx=0;exitDy=0;entryX=0;entryY=0.5;entryDx=0;entryDy=0;" edge="1" parent="1" source="xV9VtFNJZrZZkLkUG6F--19" target="xV9VtFNJZrZZkLkUG6F--28">
          <mxGeometry relative="1" as="geometry" />
        </mxCell>
        <mxCell id="AW_P3dIRDqrpF_igCJln-7" style="edgeStyle=orthogonalEdgeStyle;rounded=0;orthogonalLoop=1;jettySize=auto;html=1;exitX=0;exitY=0.5;exitDx=0;exitDy=0;entryX=1;entryY=0.5;entryDx=0;entryDy=0;" edge="1" parent="1" source="xV9VtFNJZrZZkLkUG6F--32" target="xV9VtFNJZrZZkLkUG6F--40">
          <mxGeometry relative="1" as="geometry" />
        </mxCell>
      </root>
    </mxGraphModel>
  </diagram>
</mxfile>
